# xmcd
#
# Track frame offsets: 
#        183
#        21175
#        38323
#        58020
#        71035
#        90948
#        113775
#        159493
#        190878
#        210378
#        222548
#        235220
#        244670
#
# Disc length: 3494 seconds
#
# Revision: 1
# Processed by: cddbd v1.5.2PL0 Copyright (c) Steve Scherf et al.
# Submitted via: ExactAudioCopy v0.99pb1
#
DISCID=a90da40d
DTITLE=Various Artist - Latin Jazz Party - CD1
DYEAR=1992
DGENRE=Jazz
TTITLE0=Carter, Benny - Frenesi
TTITLE1=Winding, Kai - Recardo
TTITLE2=Tjader, Cal - Doxy
TTITLE3=Thielemans, Toots - Honeysuckle Rose
TTITLE4=Getz, Stan and Luis Bonfa - Um Abraco No Getz
TTITLE5=Hawkins, Coleman and Ben Webster - Rosita
TTITLE6=Brookmeyer, Bob with Lalo Shifrin - Samba Para Dos
TTITLE7=Peterson Trio, Oscar - Con Alma
TTITLE8=Getz, Stan and Luis Bonfa - Samba De Duas Notas
TTITLE9=Winding, Kai - I'm Your Bunny Bossa Nova
TTITLE10=Burrell, Kenny - As Long As I Live
TTITLE11=Mann, Herbie - The Peanut Vendor
TTITLE12=Peterson Trio, Oscar - The Girls from Ipanema
EXTD=
EXTT0=
EXTT1=
EXTT2=
EXTT3=
EXTT4=
EXTT5=
EXTT6=
EXTT7=
EXTT8=
EXTT9=
EXTT10=
EXTT11=
EXTT12=
PLAYORDER=
